<?xml version="1.0" encoding="utf-8"?>
<!-- Generator: Adobe Illustrator 16.0.0, SVG Export Plug-In . SVG Version: 6.00 Build 0)  -->
<!DOCTYPE svg PUBLIC "-//W3C//DTD SVG 1.1//EN" "http://www.w3.org/Graphics/SVG/1.1/DTD/svg11.dtd">
<svg version="1.1" id="Layer_1" xmlns="http://www.w3.org/2000/svg" xmlns:xlink="http://www.w3.org/1999/xlink" x="0px" y="0px"
	 width="93px" height="37px" viewBox="0 0 93 37" enable-background="new 0 0 93 37" xml:space="preserve">
<g>
	<path fill="#060507" d="M10.526,16.57c-0.865-0.99-2.102-1.607-3.586-1.484c-0.123-0.248-0.619-2.72-0.619-2.72
		s1.731-2.597,2.104-3.092c1.854-2.967,1.978-5.316,0.865-7.667C8.918,0.742,7.929,0,6.94,0c-0.741,0-1.359,0.619-1.73,1.36
		C3.973,3.462,3.973,7.419,4.591,10.14c0,0-0.619,0.618-1.236,1.36c-1.238,1.36-2.597,2.844-3.092,4.822
		C-0.355,18.548,0.14,20.65,1.5,22.258c1.484,1.854,3.71,2.721,6.43,2.473c0.496,2.35,0.867,3.834,0.124,5.193
		c-0.247,0.496-0.741,0.988-1.607,0.988c-0.247,0-0.371,0-0.618-0.123c0.742-0.369,1.36-1.111,1.36-1.979
		c0-1.236-0.989-2.225-2.226-2.225c-2.103,0.123-2.227,2.225-2.227,2.225c0,0.742,0.248,1.484,0.742,1.979
		c0.618,0.619,1.608,1.113,2.721,1.113c1.36,0,2.72-0.494,3.215-2.473c0.494-1.607-0.371-4.205-0.496-5.068
		c1.361-0.619,2.597-2.475,2.721-3.711C11.887,19.289,11.392,17.683,10.526,16.57z M6.569,2.844C6.693,2.597,6.94,2.473,7.188,2.473
		c0.124,0,0.371,0.124,0.495,0.247C8.177,2.968,8.3,3.462,8.3,4.204C8.177,6.06,6.569,8.285,5.704,9.026
		C5.333,7.295,5.581,4.081,6.569,2.844z M2.983,22.258c-0.866-0.865-1.236-2.102-1.113-3.338c0.247-1.979,1.607-3.587,2.721-4.823
		c0.247-0.248,0.495-0.495,0.618-0.743c0.124,0.619,0.495,1.608,0.618,2.103c-1.484,0.619-2.35,2.596-2.226,4.204
		c0,0.744,0.247,1.236,0.618,1.732c0.123,0.123,0.248,0.246,0.371,0.246c0.123,0,0.371-0.123,0.371-0.246l0,0
		c0.124-0.125,0.124-0.371,0-0.496c-0.124-0.123-0.124-0.246-0.124-0.492c-0.124-1.115,0.619-1.981,1.483-2.352
		c0.125,0.742,0.99,4.577,1.114,5.442C5.828,23.988,4.096,23.494,2.983,22.258z M8.548,23c-0.248-0.865-0.371-1.855-0.619-2.969
		c-0.123-0.742-0.247-1.608-0.494-2.348c1.607,0,2.102,1.36,2.226,1.854C10.032,20.896,9.661,22.258,8.548,23z"/>
</g>
<g>
	<path d="M28.603,14.036c-0.996,0.457-2.133,0.686-3.412,0.686c-0.912,0-1.74-0.157-2.484-0.47
		c-0.744-0.313-1.379-0.749-1.904-1.305c-0.525-0.557-0.93-1.219-1.215-1.986c-0.285-0.768-0.427-1.605-0.427-2.514
		c0-0.955,0.151-1.844,0.455-2.667c0.303-0.823,0.736-1.538,1.3-2.145s1.247-1.083,2.048-1.428s1.7-0.519,2.696-0.519
		c1.098,0,2.079,0.164,2.943,0.492v1.248c-0.924-0.451-1.911-0.677-2.961-0.677c-0.834,0-1.575,0.141-2.223,0.422
		s-1.194,0.672-1.638,1.173c-0.444,0.501-0.783,1.093-1.017,1.775s-0.351,1.428-0.351,2.237c0,0.727,0.105,1.411,0.315,2.052
		s0.521,1.203,0.932,1.683s0.923,0.861,1.535,1.143c0.612,0.281,1.323,0.422,2.133,0.422c1.242,0,2.334-0.255,3.276-0.765V14.036z"
		/>
	<path d="M31.168,14.501V1.177h1.152v13.324H31.168z"/>
	<path d="M40.601,14.501v-1.6h-0.036c-0.3,0.574-0.71,1.02-1.229,1.336c-0.52,0.316-1.106,0.475-1.76,0.475
		c-0.444,0-0.845-0.062-1.202-0.185s-0.66-0.297-0.909-0.523s-0.441-0.497-0.576-0.813c-0.135-0.316-0.202-0.665-0.202-1.046
		c0-0.814,0.258-1.463,0.774-1.947s1.296-0.798,2.34-0.945l2.799-0.396c0-1.729-0.687-2.593-2.061-2.593
		c-1.074,0-2.07,0.384-2.988,1.151v-1.23c0.192-0.135,0.41-0.256,0.653-0.365c0.243-0.108,0.5-0.202,0.77-0.281
		s0.547-0.141,0.833-0.185c0.285-0.044,0.563-0.066,0.833-0.066c1.026,0,1.802,0.281,2.327,0.844s0.788,1.4,0.788,2.514v5.854
		H40.601z M38.225,10.133c-0.414,0.059-0.768,0.132-1.062,0.22s-0.537,0.207-0.729,0.356c-0.192,0.149-0.333,0.334-0.423,0.554
		c-0.09,0.22-0.135,0.491-0.135,0.813c0,0.24,0.043,0.463,0.13,0.668s0.213,0.382,0.378,0.532s0.366,0.265,0.603,0.347
		c0.237,0.082,0.506,0.123,0.806,0.123c0.408,0,0.783-0.076,1.125-0.229c0.342-0.152,0.638-0.363,0.887-0.633
		s0.444-0.592,0.585-0.967s0.211-0.782,0.211-1.222V9.808L38.225,10.133z"/>
	<path d="M44.003,12.884c0.174,0.135,0.363,0.255,0.567,0.36c0.204,0.105,0.414,0.196,0.63,0.272
		c0.216,0.076,0.434,0.133,0.653,0.171c0.219,0.038,0.427,0.057,0.625,0.057c1.369,0,2.052-0.501,2.052-1.503
		c0-0.229-0.049-0.426-0.145-0.593s-0.234-0.319-0.414-0.457s-0.396-0.265-0.648-0.382c-0.252-0.117-0.537-0.24-0.854-0.369
		c-0.426-0.17-0.792-0.343-1.098-0.519c-0.306-0.176-0.558-0.368-0.756-0.576c-0.198-0.208-0.345-0.437-0.441-0.686
		c-0.096-0.249-0.144-0.532-0.144-0.848c0-0.398,0.088-0.753,0.266-1.063c0.177-0.311,0.415-0.574,0.715-0.791
		c0.3-0.217,0.646-0.382,1.04-0.497s0.806-0.171,1.238-0.171c0.798,0,1.494,0.146,2.088,0.439v1.187
		c-0.689-0.434-1.434-0.65-2.232-0.65c-0.288,0-0.55,0.035-0.787,0.105c-0.237,0.07-0.44,0.17-0.607,0.299
		c-0.168,0.129-0.299,0.283-0.392,0.461c-0.093,0.179-0.14,0.376-0.14,0.593c0,0.223,0.036,0.417,0.108,0.584
		c0.072,0.167,0.185,0.318,0.337,0.453c0.153,0.135,0.351,0.264,0.594,0.387s0.539,0.255,0.886,0.396
		c0.444,0.176,0.828,0.35,1.152,0.523s0.592,0.36,0.801,0.563c0.211,0.202,0.366,0.428,0.469,0.677
		c0.102,0.249,0.152,0.538,0.152,0.866c0,0.404-0.085,0.765-0.256,1.081c-0.172,0.316-0.408,0.583-0.711,0.8
		s-0.659,0.381-1.066,0.492c-0.408,0.111-0.853,0.167-1.333,0.167c-0.93,0-1.713-0.19-2.35-0.571V12.884z"/>
	<path d="M51.492,12.884c0.174,0.135,0.363,0.255,0.567,0.36s0.414,0.196,0.63,0.272c0.217,0.076,0.434,0.133,0.652,0.171
		s0.428,0.057,0.626,0.057c1.368,0,2.052-0.501,2.052-1.503c0-0.229-0.048-0.426-0.144-0.593c-0.097-0.167-0.234-0.319-0.414-0.457
		c-0.181-0.138-0.396-0.265-0.648-0.382c-0.252-0.117-0.537-0.24-0.854-0.369c-0.426-0.17-0.793-0.343-1.099-0.519
		s-0.558-0.368-0.756-0.576s-0.345-0.437-0.44-0.686c-0.097-0.249-0.145-0.532-0.145-0.848c0-0.398,0.088-0.753,0.266-1.063
		C51.962,6.439,52.2,6.175,52.5,5.958c0.301-0.217,0.646-0.382,1.04-0.497s0.806-0.171,1.237-0.171c0.799,0,1.494,0.146,2.088,0.439
		v1.187c-0.689-0.434-1.434-0.65-2.231-0.65c-0.288,0-0.551,0.035-0.788,0.105c-0.236,0.07-0.439,0.17-0.607,0.299
		s-0.299,0.283-0.391,0.461c-0.094,0.179-0.141,0.376-0.141,0.593c0,0.223,0.037,0.417,0.108,0.584
		C52.888,8.477,53,8.627,53.152,8.762c0.154,0.135,0.352,0.264,0.595,0.387s0.538,0.255,0.887,0.396
		c0.444,0.176,0.828,0.35,1.151,0.523c0.324,0.173,0.592,0.36,0.802,0.563s0.366,0.428,0.468,0.677s0.153,0.538,0.153,0.866
		c0,0.404-0.085,0.765-0.257,1.081c-0.171,0.316-0.408,0.583-0.711,0.8s-0.658,0.381-1.066,0.492s-0.852,0.167-1.332,0.167
		c-0.93,0-1.713-0.19-2.35-0.571V12.884z"/>
	<path d="M60.07,3.225c-0.223,0-0.414-0.076-0.576-0.229s-0.243-0.346-0.243-0.58c0-0.229,0.081-0.417,0.243-0.567
		s0.354-0.224,0.576-0.224c0.113,0,0.222,0.019,0.324,0.057c0.102,0.038,0.19,0.092,0.266,0.163c0.074,0.07,0.135,0.154,0.18,0.25
		s0.067,0.204,0.067,0.321c0,0.111-0.021,0.217-0.063,0.316c-0.041,0.1-0.102,0.186-0.18,0.259s-0.166,0.13-0.266,0.171
		C60.3,3.205,60.19,3.225,60.07,3.225z M59.504,14.501v-9h1.151v9H59.504z"/>
	<path d="M69.756,14.097c-0.685,0.404-1.513,0.612-2.484,0.624c-0.66,0.006-1.254-0.105-1.783-0.334
		c-0.527-0.229-0.978-0.546-1.35-0.954s-0.656-0.888-0.855-1.441c-0.197-0.554-0.297-1.156-0.297-1.806
		c0-0.674,0.105-1.308,0.315-1.903s0.517-1.113,0.918-1.556s0.894-0.792,1.476-1.05s1.248-0.387,1.999-0.387
		c0.762,0,1.458,0.144,2.088,0.431v1.195c-0.672-0.434-1.397-0.65-2.179-0.65c-0.545,0-1.031,0.101-1.457,0.303
		c-0.427,0.202-0.785,0.478-1.076,0.826s-0.514,0.756-0.666,1.222s-0.229,0.959-0.229,1.481c0,0.48,0.064,0.94,0.193,1.38
		s0.327,0.828,0.595,1.165c0.267,0.337,0.604,0.605,1.012,0.804s0.889,0.299,1.44,0.299c0.864,0,1.644-0.252,2.341-0.756V14.097z"/>
	<path d="M77.279,14.501v-1.6h-0.035c-0.301,0.574-0.71,1.02-1.229,1.336c-0.52,0.316-1.105,0.475-1.76,0.475
		c-0.444,0-0.845-0.062-1.201-0.185c-0.357-0.123-0.66-0.297-0.91-0.523c-0.248-0.226-0.44-0.497-0.576-0.813
		c-0.135-0.316-0.201-0.665-0.201-1.046c0-0.814,0.258-1.463,0.773-1.947s1.296-0.798,2.34-0.945l2.799-0.396
		c0-1.729-0.687-2.593-2.061-2.593c-1.074,0-2.07,0.384-2.988,1.151v-1.23c0.191-0.135,0.41-0.256,0.652-0.365
		c0.243-0.108,0.5-0.202,0.77-0.281C73.923,5.462,74.2,5.4,74.485,5.356c0.284-0.044,0.563-0.066,0.833-0.066
		c1.025,0,1.801,0.281,2.326,0.844s0.787,1.4,0.787,2.514v5.854H77.279z M74.904,10.133c-0.414,0.059-0.769,0.132-1.063,0.22
		s-0.537,0.207-0.729,0.356c-0.193,0.149-0.334,0.334-0.424,0.554s-0.135,0.491-0.135,0.813c0,0.24,0.043,0.463,0.131,0.668
		c0.086,0.205,0.213,0.382,0.377,0.532c0.166,0.149,0.367,0.265,0.604,0.347c0.237,0.082,0.506,0.123,0.806,0.123
		c0.408,0,0.783-0.076,1.125-0.229c0.343-0.152,0.638-0.363,0.887-0.633s0.444-0.592,0.585-0.967s0.211-0.782,0.211-1.222V9.808
		L74.904,10.133z"/>
	<path d="M81.205,14.501V1.177h1.151v13.324H81.205z"/>
</g>
<g>
	<path d="M27.997,31.166v-5.897h-7.039v5.897h-1.197V18.563h1.197v5.651h7.039v-5.651h1.197v12.604H27.997z"/>
	<path d="M37.664,31.166v-1.6h-0.036c-0.3,0.574-0.71,1.02-1.229,1.336c-0.52,0.316-1.106,0.475-1.76,0.475
		c-0.444,0-0.845-0.062-1.202-0.185s-0.66-0.297-0.909-0.522s-0.441-0.497-0.576-0.813c-0.135-0.316-0.202-0.665-0.202-1.046
		c0-0.814,0.258-1.463,0.774-1.946s1.296-0.799,2.34-0.945l2.799-0.396c0-1.729-0.687-2.593-2.061-2.593
		c-1.074,0-2.07,0.384-2.988,1.151v-1.23c0.192-0.135,0.41-0.256,0.653-0.364c0.243-0.108,0.5-0.202,0.77-0.281
		s0.547-0.141,0.833-0.185c0.285-0.044,0.563-0.066,0.833-0.066c1.026,0,1.802,0.281,2.327,0.844s0.788,1.4,0.788,2.514v5.854
		H37.664z M35.288,26.798c-0.414,0.059-0.768,0.132-1.062,0.22s-0.537,0.207-0.729,0.356c-0.192,0.149-0.333,0.334-0.423,0.554
		c-0.09,0.22-0.135,0.49-0.135,0.813c0,0.24,0.043,0.463,0.13,0.668s0.213,0.383,0.378,0.532s0.366,0.265,0.603,0.347
		c0.237,0.082,0.506,0.123,0.806,0.123c0.408,0,0.783-0.076,1.125-0.229c0.342-0.152,0.638-0.363,0.887-0.633
		s0.444-0.592,0.585-0.967s0.211-0.782,0.211-1.222v-0.888L35.288,26.798z"/>
	<path d="M46.161,23.317c-0.27-0.193-0.618-0.29-1.044-0.29c-0.306,0-0.576,0.058-0.81,0.172c-0.234,0.114-0.44,0.268-0.617,0.461
		c-0.177,0.193-0.327,0.418-0.45,0.673s-0.222,0.52-0.297,0.795c-0.075,0.275-0.129,0.554-0.162,0.835
		c-0.033,0.281-0.049,0.548-0.049,0.8v4.403h-1.143v-9h1.143v1.925h0.036c0.108-0.328,0.245-0.622,0.41-0.883
		s0.355-0.48,0.572-0.659c0.216-0.179,0.451-0.315,0.707-0.409c0.255-0.094,0.523-0.141,0.806-0.141c0.186,0,0.352,0.012,0.5,0.035
		c0.147,0.023,0.28,0.059,0.4,0.105V23.317z"/>
	<path d="M59.383,31.166v-5.291c0-0.539-0.042-0.994-0.126-1.366s-0.215-0.676-0.392-0.91s-0.402-0.404-0.675-0.51
		c-0.273-0.105-0.599-0.158-0.977-0.158c-0.336,0-0.654,0.078-0.954,0.233s-0.563,0.369-0.788,0.642
		c-0.225,0.272-0.401,0.593-0.53,0.962c-0.13,0.369-0.194,0.768-0.194,1.195v5.203h-1.151v-5.405c0-1.887-0.741-2.83-2.224-2.83
		c-0.342,0-0.66,0.075-0.954,0.225s-0.551,0.358-0.77,0.628s-0.39,0.594-0.513,0.972s-0.185,0.795-0.185,1.252v5.159h-1.152v-9
		h1.152v1.459h0.036c0.647-1.113,1.593-1.67,2.835-1.67c0.324,0,0.63,0.049,0.918,0.146s0.546,0.231,0.774,0.404
		c0.228,0.173,0.424,0.379,0.589,0.619s0.29,0.504,0.374,0.791c0.324-0.639,0.745-1.125,1.265-1.459
		c0.519-0.334,1.105-0.501,1.76-0.501c2.021,0,3.033,1.219,3.033,3.656v5.555H59.383z"/>
	<path d="M67.078,31.377c-0.684,0-1.297-0.111-1.84-0.334c-0.544-0.223-1.007-0.537-1.391-0.944
		c-0.385-0.407-0.679-0.896-0.883-1.464s-0.306-1.198-0.306-1.89c0-0.75,0.108-1.421,0.324-2.013s0.523-1.094,0.922-1.507
		c0.399-0.413,0.881-0.729,1.445-0.945c0.563-0.217,1.193-0.325,1.89-0.325c0.666,0,1.267,0.107,1.801,0.321
		s0.986,0.522,1.358,0.927s0.657,0.896,0.855,1.477s0.297,1.239,0.297,1.978c0,0.703-0.104,1.344-0.311,1.921
		s-0.502,1.073-0.887,1.489c-0.384,0.416-0.852,0.738-1.403,0.967C68.398,31.263,67.774,31.377,67.078,31.377z M67.169,22.931
		c-0.505,0-0.961,0.085-1.368,0.255c-0.408,0.17-0.758,0.418-1.049,0.743s-0.515,0.724-0.671,1.195s-0.233,1.006-0.233,1.604
		c0,0.563,0.077,1.069,0.233,1.521s0.377,0.838,0.662,1.16c0.284,0.322,0.631,0.57,1.039,0.743s0.864,0.259,1.368,0.259
		c0.517,0,0.973-0.083,1.368-0.25c0.396-0.167,0.732-0.41,1.008-0.729c0.276-0.319,0.485-0.711,0.626-1.174s0.212-0.99,0.212-1.582
		c0-1.213-0.276-2.14-0.828-2.781C68.983,23.252,68.194,22.931,67.169,22.931z"/>
	<path d="M80.094,31.166V25.98c0-2.033-0.756-3.05-2.269-3.05c-0.401,0-0.773,0.078-1.116,0.233
		c-0.342,0.155-0.638,0.37-0.887,0.646s-0.443,0.603-0.585,0.98c-0.141,0.378-0.211,0.786-0.211,1.226v5.15h-1.152v-9h1.152v1.564
		h0.036c0.684-1.184,1.713-1.775,3.087-1.775c1.008,0,1.776,0.319,2.305,0.958c0.527,0.639,0.792,1.562,0.792,2.769v5.484H80.094z"
		/>
	<path d="M86.69,32.801c-0.359,0.879-0.773,1.531-1.242,1.956c-0.467,0.425-1.034,0.637-1.7,0.637c-0.33,0-0.609-0.038-0.837-0.114
		v-1.055c0.132,0.047,0.266,0.082,0.4,0.105s0.271,0.035,0.409,0.035c0.378,0,0.706-0.115,0.985-0.347s0.521-0.582,0.725-1.051
		l0.801-1.846l-3.546-8.956h1.278l2.637,7.128c0.037,0.094,0.07,0.201,0.104,0.321s0.064,0.238,0.096,0.355h0.045
		c0.029-0.1,0.059-0.2,0.084-0.303c0.027-0.103,0.064-0.216,0.113-0.339l2.799-7.163h1.215L86.69,32.801z"/>
</g>
</svg>
